<svg width="640" height="480" xmlns="http://www.w3.org/2000/svg">
      <path
        d="M164.732 239.2l110.7-145.8 129.6-48.6 129.6 21.6 89.1 75.6 8.1 94.5-2.7 189-348.3-2.7 16.2-51.3-132.3-132.3"
        fill="none"
        stroke="#000"
        stroke-width="5.4"
      />
      <path
        d="M170.132 241.9L43.232 304l-29.7 59.4 62.1-8.1 153.9-48.6"
        fill="none"
        stroke="#000"
        stroke-width="5.4"
      />
      <path
        d="M32.174 332.96l13.533-26.933 61.062-29.846 61.062-29.845 29.167 29.17 29.168 29.169-75.659 23.886-75.658 23.886-26.66 3.467c-14.664 1.907-27.311 3.582-28.105 3.723l-1.443.255z"
        fill="#ff9b37"
      />
      <path
        d="M497.196 421.605c-66.492-.541-141.482-1.133-166.644-1.315l-45.75-.331 7.814-24.67 7.814-24.671-65.76-65.779c-36.168-36.178-65.686-65.98-65.595-66.226.09-.246 24.48-32.467 54.199-71.602l54.034-71.156 64.03-24.01 64.03-24.01 63.724 10.621c35.049 5.842 64.02 10.8 64.379 11.018.951.578 86.938 73.56 87.237 74.045.138.224 2.042 21.244 4.23 46.711l3.98 46.304-1.115 80.01c-.613 44.006-1.243 85.897-1.399 93.09l-.284 13.079-4.014-.062c-2.208-.034-58.417-.505-124.91-1.046z"
        fill="#fff"
      />
      <path
        d="M497.196 421.605c-66.492-.541-141.482-1.133-166.644-1.315l-45.75-.331 7.814-24.67 7.814-24.671-65.76-65.779c-36.168-36.178-65.686-65.982-65.595-66.23.09-.25 24.479-32.47 54.196-71.603l54.031-71.15 64.033-24.011 64.033-24.01 63.724 10.621c35.049 5.842 64.02 10.8 64.379 11.018.945.574 86.936 73.559 87.234 74.04.137.221 2.039 21.142 4.227 46.491l3.979 46.089-1.112 80.23c-.61 44.128-1.239 86.117-1.395 93.31l-.284 13.079-4.014-.062c-2.208-.034-58.417-.505-124.91-1.046z"
        fill="#fff"
      />
    </svg>